<svg xmlns="http://www.w3.org/2000/svg" width="50" height="50" viewBox="0 0 50 50"><title>Artboard</title><g fill="none" fill-rule="evenodd"><path d="M0 0h50v50H0V0z" fill="#D8D8D8"/><path d="M25.103 26.242c3.212 0 5.642-2.92 5.642-6.787 0-3.086-2.58-5.705-5.642-5.705-3.06 0-5.64 2.62-5.64 5.705 0 3.866 2.43 6.787 5.64 6.787zm0-10.54c1.952 0 3.678 1.763 3.678 3.753 0 2.757-1.574 4.835-3.677 4.835-2.103 0-3.677-2.078-3.677-4.835 0-1.99 1.726-3.753 3.677-3.753zm-8.45 20.615l.177-1.877c.39-3.778 4.697-4.61 8.273-4.61 3.577 0 7.884.832 8.274 4.598l.176 1.89h2.015l-.176-2.08c-.44-4.117-4.068-6.384-10.29-6.384-6.22 0-9.846 2.267-10.287 6.397l-.176 2.067h2.014z" fill="#FFF"/></g></svg>